<?xml version="1.0" encoding="utf-8"?>
<!-- Generator: Adobe Illustrator 26.5.1, SVG Export Plug-In . SVG Version: 6.00 Build 0)  -->
<svg version="1.1" id="Layer_1" xmlns="http://www.w3.org/2000/svg" xmlns:xlink="http://www.w3.org/1999/xlink" x="0px" y="0px"
	 viewBox="0 0 75 75" style="enable-background:new 0 0 75 75;" xml:space="preserve">
<style type="text/css">
	.st0{fill:#FFFFFF;}
	.st1{fill:none;}
</style>
<rect x="3.5" y="3.5" class="st0" width="68" height="68"/>
<path class="st1" d="M0,0v75h75V0H0z M59,62.6H15.9v-0.5c2.8-0.6,4.3-3.5,4.3-7.7V19.5c0-3.9-2.5-6.8-4.3-7.5v-0.2h34l8.6-0.2V26H58
	c-2.5-10.3-9.4-11.8-13-11.8H32v21h7.9c6.1,0,8.4-4.3,9.3-8.7H50v19.3h-0.8c-1.4-6.5-4.4-8.4-9.3-8.4H32v23h9.7
	c13.2,0,15.6-9.5,17-15h0.5L59,62.6z"/>
</svg>
