<?xml version="1.0" encoding="utf-8"?>
<!-- Generator: Adobe Illustrator 26.5.1, SVG Export Plug-In . SVG Version: 6.00 Build 0)  -->
<svg version="1.1" xmlns="http://www.w3.org/2000/svg" xmlns:xlink="http://www.w3.org/1999/xlink" x="0px" y="0px"
	 viewBox="0 0 75 75" style="enable-background:new 0 0 75 75;" xml:space="preserve">
<style type="text/css">
	.st0{fill:none;}
	.st1{fill:#FFFFFF;}
</style>
<g id="Layer_1">
	<g>
		<path class="st0" d="M0,0v75h75V0H0z"/>
		<path class="st1" d="M58.7,45.4c-1.4,5.5-3.8,15-17,15H32v-23h7.9c4.9,0,7.9,1.9,9.3,8.4H50V26.5h-0.8c-0.9,4.4-3.2,8.7-9.3,8.7
			H32v-21h13c3.6,0,10.5,1.5,13,11.8h0.5V11.6l-8.6,0.2h-34V12c1.8,0.7,4.3,3.6,4.3,7.5v34.9c0,4.2-1.5,7.1-4.3,7.7v0.5H59l0.2-17.2
			H58.7z"/>
	</g>
</g>
<g id="Layer_2">
</g>
</svg>
